{"asset":{"version":"2.0","generator":"Blockbench 4.7.4 glTF exporter"},"scenes":[{"nodes":[1],"name":"blockbench_export"}],"scene":0,"nodes":[{"name":"cylinder","mesh":0},{"children":[0]}],"bufferViews":[{"buffer":0,"byteOffset":0,"byteLength":1200,"target":34962,"byteStride":12},{"buffer":0,"byteOffset":1200,"byteLength":1200,"target":34962,"byteStride":12},{"buffer":0,"byteOffset":2400,"byteLength":800,"target":34962,"byteStride":8},{"buffer":0,"byteOffset":3200,"byteLength":240,"target":34963}],"buffers":[{"byteLength":3440,"uri":"data:application/octet-stream;base64,"}],"accessors":[{"bufferView":0,"componentType":5126,"count":100,"max":[0.7228803038597107,0.5,0.6875],"min":[-0.7228803038597107,0,-0.6875],"type":"VEC3"},{"bufferView":1,"componentType":5126,"count":100,"max":[0.9510565400123596,1,1],"min":[-0.9510565400123596,-1,-1],"type":"VEC3"},{"bufferView":2,"componentType":5126,"count":100,"max":[0.710071861743927,0.609375],"min":[0,0],"type":"VEC2"},{"bufferView":3,"componentType":5123,"count":120,"max":[99],"min":[0],"type":"SCALAR"}],"materials":[{"pbrMetallicRoughness":{"metallicFactor":0,"roughnessFactor":1,"baseColorTexture":{"index":0}},"alphaMode":"MASK","alphaCutoff":0.05,"doubleSided":true}],"textures":[{"sampler":0,"source":0,"name":"forgeTexture"}],"samplers":[{"magFilter":9728,"minFilter":9728,"wrapS":33071,"wrapT":33071}],"images":[{"mimeType":"image/png","uri":"data:image/png;base64,"}],"meshes":[{"primitives":[{"mode":4,"attributes":{"POSITION":0,"NORMAL":1,"TEXCOORD_0":2},"indices":3,"material":0}]}]}